# File created by Blade
# Date/Time:  Tue Jan 27 18:05:51 2015
#---------------------------------------------------------
:version 1.10
:name HOM
:units
  mass 1.0
  length 1.000000
  angle deg
:documentation
     Acclaim Skeleton File
:root
   axis xyz
   order TX TY TZ RX RY RZ
   position 0.000000 0.000000 0.000000
   orientation 0 0 0
:bonedata
   begin
      id 1
      name Spine_dum
      direction 0.000000 1.000000 0.000000
      length 5.195262
      axis 0.0 0.0 0.0 xyz
   end
   begin
      id 2
      name LeftUpLeg_dum
      direction 1.000000 0.000000 0.000000
      length 3.351363
      axis 0.0 0.0 0.0 xyz
   end
   begin
      id 3
      name RightUpLeg_dum
      direction -1.000000 0.000000 0.000000
      length 3.351363
      axis 0.0 0.0 0.0 xyz
   end
   begin
      id 4
      name Spine
      direction 0.000000 1.000000 0.000000
      length 0.000000
      axis 0.0 0.0 0.0 xyz
      dof rx ry rz
   end
   begin
      id 5
      name Spine_dum1
      direction 0.000000 1.000000 0.000000
      length 15.653875
      axis 0.0 0.0 0.0 xyz
   end
   begin
      id 6
      name Spine_dum2
      direction 0.000000 1.000000 0.000000
      length 10.329768
      axis 0.0 0.0 0.0 xyz
   end
   begin
      id 7
      name Spine_dum3
      direction 0.000000 1.000000 0.000000
      length 10.329768
      axis 0.0 0.0 0.0 xyz
   end
   begin
      id 8
      name Head
      direction 0.000000 1.000000 0.000000
      length 4.527550
      axis 0.0 0.0 0.0 xyz
      dof rx ry rz
   end
   begin
      id 9
      name LeftShoulder
      direction 1.000000 0.000000 0.000000
      length 6.996006
      axis 0.0 0.0 -90.0 xyz
      dof rx ry rz
   end
   begin
      id 10
      name LeftArm
      direction 1.000000 0.000000 0.000000
      length 10.209302
      axis 0.0 0.0 -90.0 xyz
      dof rx ry rz
   end
   begin
      id 11
      name LeftForeArm
      direction 1.000000 0.000000 0.000000
      length 8.563163
      axis 0.0 0.0 -90.0 xyz
      dof ry rz rx
   end
   begin
      id 12
      name LeftHand
      direction 0.000000 0.000000 0.000000
      length 0.000000
      axis 0.0 0.0 -90.0 xyz
      dof rx ry rz
   end
   begin
      id 13
      name LeftHand_dum1
      direction 0.000000 0.000000 0.000000
      length 0.000000
      axis 0.0 0.0 -90.0 xyz
   end
   begin
      id 14
      name LeftHand_dum2
      direction 1.000000 0.000000 0.000000
      length 3.937000
      axis 0.0 0.0 -90.0 xyz
   end
   begin
      id 15
      name LeftHandThumb1
      direction 0.000000 0.000000 1.000000
      length 3.937000
      axis 0.0 0.0 -90.0 xyz
      dof rx rz ry
   end
   begin
      id 16
      name RightShoulder
      direction -1.000000 0.000000 0.000000
      length 6.996006
      axis 0.0 0.0 90.0 xyz
      dof rx ry rz
   end
   begin
      id 17
      name RightArm
      direction -1.000000 0.000000 0.000000
      length 10.209302
      axis 0.0 0.0 90.0 xyz
      dof rx ry rz
   end
   begin
      id 18
      name RightForeArm
      direction -1.000000 0.000000 0.000000
      length 8.563163
      axis 0.0 0.0 90.0 xyz
      dof ry rz rx
   end
   begin
      id 19
      name RightHand
      direction 0.000000 0.000000 0.000000
      length 0.000000
      axis 0.0 0.0 90.0 xyz
      dof rx ry rz
   end
   begin
      id 20
      name RightHand_dum1
      direction 0.000000 0.000000 0.000000
      length 0.000000
      axis 0.0 0.0 90.0 xyz
   end
   begin
      id 21
      name RightHand_dum2
      direction -1.000000 0.000000 0.000000
      length 3.937000
      axis 0.0 0.0 90.0 xyz
   end
   begin
      id 22
      name RightHandThumb1
      direction 0.000000 0.000000 1.000000
      length 3.937000
      axis 0.0 0.0 90.0 xyz
      dof rx rz ry
   end
   begin
      id 23
      name LeftUpLeg
      direction 0.000000 -1.000000 0.000000
      length 16.346831
      axis 0.0 0.0 0.0 xyz
      dof rx ry rz
   end
   begin
      id 24
      name LeftLeg
      direction 0.000000 -1.000000 0.000000
      length 13.959795
      axis 0.0 0.0 0.0 xyz
      dof rx ry rz
   end
   begin
      id 25
      name LeftFoot
      direction 0.000000 -0.258819 0.965926
      length 5.165550
      axis 15.0 0.0 0.0 xyz
      dof rx ry rz
   end
   begin
      id 26
      name LeftToeBase
      direction 0.000000 0.000000 1.000000
      length 2.952750
      axis 0.0 0.0 0.0 xyz
      dof rx ry rz
   end
   begin
      id 27
      name RightUpLeg
      direction 0.000000 -1.000000 0.000000
      length 16.346831
      axis 0.0 0.0 0.0 xyz
      dof rx ry rz
   end
   begin
      id 28
      name RightLeg
      direction 0.000000 -1.000000 0.000000
      length 13.959795
      axis 0.0 0.0 0.0 xyz
      dof rx ry rz
   end
   begin
      id 29
      name RightFoot
      direction 0.000000 -0.258819 0.965926
      length 5.165550
      axis 15.0 0.0 0.0 xyz
      dof rx ry rz
   end
   begin
      id 30
      name RightToeBase
      direction 0.000000 0.000000 1.000000
      length 2.952750
      axis 0.0 0.0 0.0 xyz
      dof rx ry rz
   end
:hierarchy
   begin
      root Spine_dum LeftUpLeg_dum RightUpLeg_dum
      Spine_dum Spine
      LeftUpLeg_dum LeftUpLeg
      RightUpLeg_dum RightUpLeg
      Spine Spine_dum1 Spine_dum2 Spine_dum3
      Spine_dum1 Head
      Spine_dum2 LeftShoulder
      Spine_dum3 RightShoulder
      LeftShoulder LeftArm
      LeftArm LeftForeArm
      LeftForeArm LeftHand
      LeftHand LeftHand_dum1 LeftHand_dum2
      LeftHand_dum1 LeftHandThumb1
      RightShoulder RightArm
      RightArm RightForeArm
      RightForeArm RightHand
      RightHand RightHand_dum1 RightHand_dum2
      RightHand_dum1 RightHandThumb1
      LeftUpLeg LeftLeg
      LeftLeg LeftFoot
      LeftFoot LeftToeBase
      RightUpLeg RightLeg
      RightLeg RightFoot
      RightFoot RightToeBase
   end

# File created by Blade
# Date/Time:  Tue Jan 27 18:05:41 2015
# Frame Rate: 120.000 fps
#------------------------------------------------------
:FULLY-SPECIFIED
:DEGREES
439
root -1.626574 31.884196 -6.519023 6.331360 14.711409 4.274764
Spine -7.530194 2.675698 -0.651773
Head -2.810379 -16.128007 9.638168
LeftShoulder -7.439903 16.288794 6.397877
LeftArm 24.242761 40.906544 -71.794352
LeftForeArm -3.823408 -0.000000 15.720405
LeftHand -10.307105 -0.000000 -4.465751
LeftHandThumb1 -26.253704 0.000000 33.147579
RightShoulder 5.424897 45.222333 -37.030932
RightArm 46.679500 12.290791 116.994329
RightForeArm 22.151517 -0.000000 104.307199
RightHand -7.753372 -0.000000 2.070425
RightHandThumb1 -24.326973 -0.000000 -32.862282
LeftUpLeg -2.880281 -5.412364 -0.807046
LeftLeg 1.623491 -0.000000 -0.000000
LeftFoot -15.613122 13.807083 -24.597744
LeftToeBase 8.515234 -0.000000 -0.000000
RightUpLeg 2.600172 -8.920806 -3.569506
RightLeg -3.938466 -0.000000 0.000000
RightFoot -16.092605 -16.759746 10.298531
RightToeBase 5.245820 -0.000000 -0.000000
440
root -1.626107 31.883971 -6.517859 6.328613 14.723844 4.277434
Spine -7.539205 2.670882 -0.644927
Head -2.742888 -16.090582 9.602933
LeftShoulder -7.441291 16.303550 6.385811
LeftArm 24.242476 40.895932 -71.781941
LeftForeArm -3.725910 0.000000 15.748029
LeftHand -10.461750 -0.000000 -4.860973
LeftHandThumb1 -26.253704 0.000000 33.147579
RightShoulder 5.416610 45.152909 -37.027557
RightArm 46.722160 12.261716 116.967258
RightForeArm 22.141514 -0.000000 104.301820
RightHand -7.710770 -0.000000 2.056465
RightHandThumb1 -24.326973 -0.000000 -32.862282
LeftUpLeg -2.876790 -5.401732 -0.808783
LeftLeg 1.626302 -0.000000 -0.000000
LeftFoot -15.612772 13.782818 -24.610139
LeftToeBase 8.521061 -0.000000 -0.000000
RightUpLeg 2.613033 -8.915070 -3.571491
RightLeg -3.947611 -0.000000 0.000000
RightFoot -16.096818 -16.785568 10.272237
RightToeBase 5.242095 -0.000000 -0.000000
441
root -1.624937 31.883605 -6.516810 6.320907 14.742290 4.285449
Spine -7.537883 2.661175 -0.643772
Head -2.685253 -16.071409 9.573880
LeftShoulder -7.442167 16.303794 6.384758
LeftArm 24.218978 40.888649 -71.802434
LeftForeArm -3.722348 -0.000000 15.764705
LeftHand -10.443680 -0.000000 -4.898532
LeftHandThumb1 -26.253704 0.000000 33.147579
RightShoulder 5.415609 45.149237 -37.032320
RightArm 46.703814 12.275870 116.938052
RightForeArm 22.152396 0.000000 104.325525
RightHand -7.682579 -0.000000 2.033945
RightHandThumb1 -24.326973 -0.000000 -32.862282
LeftUpLeg -2.864936 -5.418723 -0.817969
LeftLeg 1.623828 -0.000000 -0.000000
LeftFoot -15.614146 13.785409 -24.610203
LeftToeBase 8.537545 -0.000000 -0.000000
RightUpLeg 2.629417 -8.930475 -3.580518
RightLeg -3.948774 -0.000000 0.000000
RightFoot -16.107447 -16.786458 10.276360
RightToeBase 5.269029 -0.000000 -0.000000
442
root -1.624323 31.883254 -6.516524 6.319247 14.768185 4.289402
Spine -7.545406 2.652826 -0.639721
Head -2.618790 -16.063897 9.540662
LeftShoulder -7.434274 16.318846 6.377848
LeftArm 24.217516 40.888023 -71.800701
LeftForeArm -3.833212 -0.000000 15.780692
LeftHand -10.303150 -0.000000 -4.453087
LeftHandThumb1 -26.253704 0.000000 33.147579
RightShoulder 5.407673 45.099164 -37.027805
RightArm 46.731198 12.266433 116.925796
RightForeArm 22.116809 0.000000 104.333671
RightHand -7.663624 0.000000 2.050024
RightHandThumb1 -24.326973 -0.000000 -32.862282
LeftUpLeg -2.863265 -5.450073 -0.818100
LeftLeg 1.622310 -0.000000 -0.000000
LeftFoot -15.607050 13.784875 -24.605821
LeftToeBase 8.504310 -0.000000 -0.000000
RightUpLeg 2.641617 -8.929004 -3.583450
RightLeg -3.956685 -0.000000 0.000000
RightFoot -16.109196 -16.812169 10.274388
RightToeBase 5.233382 -0.000000 -0.000000
443
root -1.623328 31.883370 -6.515557 6.316884 14.786670 4.292469
Spine -7.551514 2.650552 -0.632930
Head -2.568601 -16.056235 9.502075
LeftShoulder -7.432020 16.346445 6.360845
LeftArm 24.222420 40.863786 -71.798967
LeftForeArm -3.839113 -0.000000 15.787279
LeftHand -10.318244 -0.000000 -4.394709
LeftHandThumb1 -26.253704 0.000000 33.147579
RightShoulder 5.401937 45.077984 -37.027878
RightArm 46.744187 12.249226 116.964050
RightForeArm 22.171351 0.000000 104.353694
RightHand -7.617002 -0.000000 1.967446
RightHandThumb1 -24.326973 -0.000000 -32.862282
LeftUpLeg -2.857331 -5.467540 -0.821087
LeftLeg 1.615959 -0.000000 -0.000000
LeftFoot -15.608906 13.784385 -24.609962
LeftToeBase 8.521667 -0.000000 -0.000000
RightUpLeg 2.644891 -8.950959 -3.585262
RightLeg -3.946460 -0.000000 0.000000
RightFoot -16.119314 -16.816656 10.274726
RightToeBase 5.265040 -0.000000 -0.000000
